<svg id="Layer_1" data-name="Layer 1" xmlns="http://www.w3.org/2000/svg" viewBox="0 0 595.28 841.89"><path d="M283.17,330.37c42.54,0,64.05,8.47,73.67,27.84l39-25.38h38.39a224.3,224.3,0,0,0-288.42,2.41c12.59-3.39,28.4-4.87,47.78-4.87Z" style="fill:#c95d43"/><path d="M319.6,625.4H248.05c-10.4,0-17.74,4.58-19.88,14.67H169.46V554.88h-63V479.42c0-27.28,17.78-45.37,61.62-48.43L246,426.08c49.71-3.07,53.08-4,53.08-25.79,0-18.11-1.84-22.1-45.41-22.1H208.6c-28.84,0-37.74,4.3-37.74,27.32V415H106.48v-26.1A92,92,0,0,1,107.1,378a224.33,224.33,0,0,0,56.71,312.3,88.23,88.23,0,0,1-1.69-18.12V659.34H224.5c0,18.65,5.2,23.85,36.39,23.85H324.5c31.19,0,34.55-8.56,34.55-30C359.05,628.15,350.79,625.4,319.6,625.4Z" style="fill:#c95d43"/><path d="M477.07,379.9v175H414.53V386.16L362.7,419.37c-3.68,44.51-21.92,53.27-90.58,57L201.85,480c-28.54,1.54-32.83,7.07-32.83,27H388.51v47.83H228.17v38.41c8.56-8.56,17.74-13.76,42.2-13.76h76.75c47.1,0,74.31,15.29,74.31,64.21v14.07c0,13.64-1.42,24.76-4.29,33.81a224.17,224.17,0,0,0,98-169.07q.6-8.28.61-16.72A223.2,223.2,0,0,0,477.07,379.9Z" style="fill:#c95d43"/></svg>
