<svg xmlns="http://www.w3.org/2000/svg" xmlns:xlink="http://www.w3.org/1999/xlink" width="38" height="38" viewBox="0 0 38 38">
  <defs>
    <clipPath id="clip-path">
      <rect id="Rectangle_8" data-name="Rectangle 8" width="38" height="38"/>
    </clipPath>
  </defs>
  <g id="a" clip-path="url(#clip-path)">
    <path id="Path_9" data-name="Path 9" d="M31.949,55.009a2.064,2.064,0,0,0,2.031,2.1H54.293a2.064,2.064,0,0,0,2.031-2.1V34.046a2.064,2.064,0,0,0-2.031-2.1H33.98a2.064,2.064,0,0,0-2.031,2.1Zm12.7-1.048V45.575H42.613V42.431h2.031c0-5.4.223-5.765,6.6-5.765V39.81c-3.362,0-3.047.194-3.047,2.62h3.047v3.144H48.2V53.96H44.644Z" transform="translate(-24.955 -25.903)" fill="#fff" fill-rule="evenodd"/>
  </g>
</svg>
